<svg width="106" height="47" xmlns="http://www.w3.org/2000/svg" xmlns:xlink="http://www.w3.org/1999/xlink" xml:space="preserve" overflow="hidden"><defs><clipPath id="clip0"><rect x="834" y="866" width="106" height="47"/></clipPath><clipPath id="clip1"><rect x="863" y="865" width="47" height="48"/></clipPath><clipPath id="clip2"><rect x="863" y="865" width="47" height="48"/></clipPath><clipPath id="clip3"><rect x="863" y="865" width="47" height="48"/></clipPath></defs><g clip-path="url(#clip0)" transform="translate(-834 -866)"><path d="M834 873.833C834 869.507 837.507 866 841.833 866L932.167 866C936.493 866 940 869.507 940 873.833L940 905.166C940 909.493 936.493 913 932.167 913L841.833 913C837.507 913 834 909.493 834 905.166Z" fill="#45B787" fill-rule="evenodd"/><g clip-path="url(#clip1)"><g clip-path="url(#clip2)"><g clip-path="url(#clip3)"><path d="M32.823 21.0834 26.8334 21.0834 26.8334 7.66668 19.1667 7.66668 19.1667 21.0834 13.1771 21.0834 23 32.5834Z" fill="#FFFFFF" transform="matrix(1 0 0 1.02174 864 866)"/><path d="M34.9792 26.8334 34.9792 35.4584 11.0208 35.4584 11.0208 26.8334 8.14584 26.8334 8.14584 38.3334 37.8542 38.3334 37.8542 26.8334Z" fill="#FFFFFF" transform="matrix(1 0 0 1.02174 864 866)"/></g></g></g></g></svg>